<svg width="20" height="20" viewBox="0 0 20 20" fill="none" xmlns="http://www.w3.org/2000/svg">
<path d="M1.45801 8.83301H7.70801C8.23616 8.83301 8.66699 9.26384 8.66699 9.79199V18.542C8.66684 19.0698 8.23611 19.5 7.70801 19.5H1.45801C0.930225 19.4999 0.500148 19.0698 0.5 18.542V9.79199C0.5 9.26389 0.930169 8.83316 1.45801 8.83301ZM12.292 13.833H18.542C19.0698 13.8332 19.5 14.2639 19.5 14.792V18.542C19.4999 19.0698 19.0698 19.4999 18.542 19.5H12.292C11.7639 19.5 11.3332 19.0698 11.333 18.542V14.792C11.333 14.2638 11.7638 13.833 12.292 13.833ZM1.45801 9.08301C1.31734 9.08314 1.18077 9.12526 1.06543 9.20215L0.957031 9.29102C0.824418 9.42382 0.750035 9.60431 0.75 9.79199V18.542L0.763672 18.6807C0.781835 18.7714 0.817812 18.8576 0.869141 18.9346L0.957031 19.043C1.05662 19.1426 1.18325 19.2091 1.31934 19.2363L1.45801 19.25H7.70801C7.84899 19.25 7.98601 19.208 8.10156 19.1309L8.20898 19.043C8.3418 18.9103 8.41682 18.7298 8.41699 18.542V9.79199L8.40332 9.65234C8.38513 9.56169 8.34916 9.47536 8.29785 9.39844L8.20898 9.29102L8.10156 9.20215C7.98606 9.1251 7.8489 9.08306 7.70801 9.08301H1.45801ZM12.1523 14.0967C12.0617 14.1149 11.9754 14.1508 11.8984 14.2021L11.791 14.291C11.6582 14.4238 11.5831 14.6042 11.583 14.792V18.542L11.5967 18.6807C11.6148 18.7713 11.6509 18.8576 11.7021 18.9346L11.791 19.043C11.8907 19.1425 12.0171 19.2092 12.1533 19.2363L12.292 19.25H18.542C18.6827 19.2499 18.8192 19.2078 18.9346 19.1309L19.043 19.043C19.1757 18.9102 19.2499 18.7297 19.25 18.542V14.792L19.2363 14.6533C19.2182 14.5623 19.1824 14.4756 19.1309 14.3984L19.043 14.291L18.9346 14.2021C18.8576 14.1509 18.7713 14.1148 18.6807 14.0967L18.542 14.083H12.292L12.1523 14.0967ZM12.292 0.5H18.542C19.0698 0.500148 19.4999 0.930225 19.5 1.45801V10.208C19.5 10.7361 19.0698 11.1668 18.542 11.167H12.292C11.7638 11.167 11.333 10.7362 11.333 10.208V1.45801C11.3332 0.930169 11.7639 0.5 12.292 0.5ZM12.1533 0.763672C12.0623 0.78181 11.9756 0.817615 11.8984 0.869141L11.791 0.957031C11.6582 1.08975 11.5832 1.27025 11.583 1.45801V10.208L11.5967 10.3477C11.6149 10.4383 11.6508 10.5246 11.7021 10.6016L11.791 10.709C11.8905 10.8085 12.0163 10.876 12.1523 10.9033L12.292 10.917H18.542C18.6827 10.9169 18.8192 10.8747 18.9346 10.7979L19.043 10.709C19.1756 10.5762 19.25 10.3957 19.25 10.208V1.45801L19.2363 1.31934C19.2182 1.22863 19.1822 1.1424 19.1309 1.06543L19.043 0.957031L18.9346 0.869141C18.8576 0.817812 18.7714 0.781835 18.6807 0.763672L18.542 0.75H12.292L12.1533 0.763672ZM1.45801 0.5H7.70801C8.23611 0.5 8.66684 0.930169 8.66699 1.45801V5.20801C8.66699 5.73616 8.23616 6.16699 7.70801 6.16699H1.45801C0.930169 6.16684 0.5 5.73611 0.5 5.20801V1.45801C0.500149 0.930226 0.930226 0.500149 1.45801 0.5ZM1.45801 0.75C1.31726 0.750105 1.18082 0.792185 1.06543 0.869141L0.957031 0.957031C0.824303 1.08976 0.750141 1.2703 0.75 1.45801V5.20801L0.763672 5.34668C0.781811 5.43771 0.817615 5.52436 0.869141 5.60156L0.957031 5.70898C1.05665 5.80868 1.18314 5.87605 1.31934 5.90332L1.45801 5.91699H7.70801C7.8489 5.91694 7.98606 5.8749 8.10156 5.79785L8.20898 5.70898C8.34179 5.57618 8.41692 5.39583 8.41699 5.20801V1.45801L8.40332 1.31934C8.38517 1.22865 8.34914 1.14238 8.29785 1.06543L8.20898 0.957031L8.10156 0.869141C7.98601 0.792021 7.84898 0.750026 7.70801 0.75H1.45801Z" fill="black" stroke="black"/>
</svg>
