<svg width="24" height="24" viewBox="0 0 24 24" fill="none" xmlns="http://www.w3.org/2000/svg">
<path d="M15.0226 10.5637C15.0226 10.3847 14.9515 10.213 14.8249 10.0864C14.6983 9.95979 14.5266 9.88867 14.3476 9.88867H6.92259C6.74357 9.88867 6.57188 9.95979 6.4453 10.0864C6.31871 10.213 6.24759 10.3847 6.24759 10.5637C6.24759 10.7427 6.31871 10.9144 6.4453 11.041C6.57188 11.1676 6.74357 11.2387 6.92259 11.2387H14.3476C14.4362 11.2387 14.524 11.2212 14.6059 11.1873C14.6878 11.1534 14.7622 11.1036 14.8249 11.041C14.8876 10.9783 14.9373 10.9039 14.9712 10.822C15.0051 10.7401 15.0226 10.6523 15.0226 10.5637ZM6.92109 13.2974C6.74207 13.2974 6.57038 13.3685 6.4438 13.4951C6.31721 13.6217 6.24609 13.7934 6.24609 13.9724C6.24609 14.1514 6.31721 14.3231 6.4438 14.4497C6.57038 14.5763 6.74207 14.6474 6.92109 14.6474H10.8578C11.0369 14.6474 11.2086 14.5763 11.3351 14.4497C11.4617 14.3231 11.5328 14.1514 11.5328 13.9724C11.5328 13.7934 11.4617 13.6217 11.3351 13.4951C11.2086 13.3685 11.0369 13.2974 10.8578 13.2974H6.92109Z" fill="black"/>
<path d="M19.4702 10.6008C19.2912 10.6008 19.1195 10.6719 18.9929 10.7985C18.8663 10.9251 18.7952 11.0968 18.7952 11.2758V16.7351C18.7946 17.2262 18.5992 17.697 18.252 18.0443C17.9047 18.3916 17.4338 18.587 16.9427 18.5876H12.4277C12.2813 18.5874 12.1388 18.6351 12.0219 18.7233L8.12345 21.6551C8.09015 21.6818 8.04955 21.6978 8.00698 21.701C7.96442 21.7042 7.92187 21.6945 7.88494 21.6731C7.84678 21.6548 7.81483 21.6258 7.79309 21.5895C7.77135 21.5532 7.76078 21.5113 7.7627 21.4691L7.8377 19.2866C7.84061 19.1961 7.82533 19.106 7.79278 19.0215C7.76023 18.9371 7.71106 18.86 7.64819 18.7949C7.58532 18.7298 7.51002 18.6779 7.42676 18.6425C7.34349 18.607 7.25395 18.5886 7.16344 18.5883H4.0277C3.5365 18.5879 3.06554 18.3926 2.71822 18.0453C2.37089 17.698 2.17559 17.227 2.1752 16.7358V7.81081C2.1748 7.31875 2.36963 6.84664 2.71693 6.49807C3.06423 6.1495 3.53564 5.95295 4.0277 5.95156H12.3452C12.5242 5.95156 12.6959 5.88045 12.8225 5.75386C12.9491 5.62727 13.0202 5.45558 13.0202 5.27656C13.0202 5.09754 12.9491 4.92585 12.8225 4.79927C12.6959 4.67268 12.5242 4.60156 12.3452 4.60156H4.0277C3.17765 4.60355 2.3631 4.94262 1.76273 5.5444C1.16236 6.14617 0.825193 6.96152 0.825195 7.81156V16.7358C0.826187 17.5849 1.16389 18.399 1.76424 18.9995C2.36459 19.6 3.17858 19.9379 4.0277 19.9391H6.46445L6.41344 21.4256C6.4031 21.7224 6.47744 22.0161 6.62778 22.2723C6.77811 22.5285 6.99824 22.7366 7.26244 22.8723C7.48738 22.9902 7.73749 23.052 7.99144 23.0523C8.32369 23.0523 8.65295 22.9451 8.93344 22.7358L12.6527 19.9391H16.9419C17.7911 19.9379 18.6051 19.6 19.2054 18.9995C19.8058 18.399 20.1435 17.5849 20.1444 16.7358V11.2766C20.1446 11.1879 20.1273 11.1001 20.0936 11.0181C20.0598 10.9361 20.0101 10.8616 19.9475 10.7988C19.8849 10.7361 19.8105 10.6863 19.7286 10.6523C19.6467 10.6183 19.5589 10.6008 19.4702 10.6008Z" fill="black"/>
<path d="M23.1188 4.17101C23.0599 3.98767 22.955 3.82247 22.8141 3.69118C22.6732 3.55988 22.5011 3.46687 22.314 3.42101L20.589 2.99126L19.647 1.48376C19.2293 0.813258 18.1388 0.814758 17.7218 1.48376L16.7798 2.99126L15.0548 3.42101C14.673 3.51551 14.3715 3.79601 14.25 4.17101C14.1285 4.54601 14.2065 4.95026 14.46 5.25251L15.603 6.61301L15.4785 8.38601C15.4644 8.57815 15.4997 8.7707 15.5811 8.94532C15.6625 9.11993 15.7873 9.27079 15.9435 9.38351C16.0991 9.49718 16.2812 9.56918 16.4725 9.59268C16.6637 9.61618 16.8578 9.59039 17.0363 9.51776L18.6848 8.85176L20.3325 9.51776C20.6978 9.66626 21.1058 9.61526 21.4253 9.38426C21.744 9.15251 21.918 8.77976 21.891 8.38601L21.7665 6.61301L22.9095 5.25176C23.1623 4.95026 23.241 4.54601 23.1188 4.17101ZM20.5568 5.95376C20.4441 6.0881 20.3881 6.26109 20.4008 6.43601L20.5208 8.13851L18.9383 7.49876C18.7762 7.43289 18.5949 7.43289 18.4328 7.49876L16.851 8.13851L16.9703 6.43601C16.9821 6.26119 16.9263 6.08852 16.8143 5.95376L15.717 4.64726L17.373 4.23401C17.5426 4.19166 17.6891 4.08519 17.7818 3.93701L18.6863 2.49026L19.5908 3.93701C19.6838 4.08551 19.83 4.19201 19.9995 4.23401L21.6555 4.64726L20.5568 5.95376Z" fill="black"/>
</svg>
