<svg width="24" height="24" viewBox="0 0 24 24" fill="none" xmlns="http://www.w3.org/2000/svg">
<g clip-path="url(#clip0_596_3400)">
<path d="M16.1054 0C15.6065 0 15.6022 0.749778 16.1082 0.749778C17.4683 0.747983 18.8006 1.13491 19.9482 1.86498C21.0958 2.59505 22.0108 3.63786 22.5855 4.87058C23.1603 6.1033 23.3708 7.4746 23.1922 8.82295C23.0137 10.1713 22.4535 11.4405 21.5777 12.4812C20.7946 13.4133 19.7863 14.1298 18.6484 14.5626C17.5106 14.9955 16.281 15.1304 15.0764 14.9545L15.6688 14.5307C16.0855 14.2288 15.649 13.625 15.2337 13.9212L13.9411 14.8467C13.9007 14.8753 13.8664 14.9115 13.84 14.9533C13.8137 14.9951 13.7959 15.0417 13.7876 15.0904C13.7793 15.1391 13.7807 15.189 13.7917 15.2372C13.8027 15.2854 13.8231 15.3309 13.8518 15.3712L14.7787 16.6652C15.0693 17.0805 15.6887 16.6354 15.3882 16.2272L15.014 15.7042C16.0847 15.8516 17.1742 15.7774 18.215 15.4863C19.2558 15.1951 20.2257 14.6932 21.0644 14.0117C21.9032 13.3302 22.593 12.4836 23.0911 11.5245C23.5891 10.5653 23.8848 9.51403 23.9597 8.43588C24.0346 7.35773 23.8872 6.27568 23.5267 5.25685C23.1661 4.23802 22.6 3.30415 21.8635 2.51317C21.1271 1.72218 20.2359 1.09095 19.2454 0.658638C18.2549 0.226323 17.1861 0.00214118 16.1054 0ZM16.1252 2.6221C14.7311 2.62623 13.3955 3.18324 12.4115 4.17091C11.4276 5.15858 10.8756 6.49624 10.8767 7.89039C10.8767 10.7945 13.2296 13.1573 16.1252 13.1573C17.5195 13.1535 18.8553 12.5969 19.8398 11.6095C20.8242 10.6222 21.3769 9.28467 21.3765 7.89039C21.3769 6.49598 20.8243 5.15832 19.8399 4.17073C18.8555 3.18314 17.5196 2.62623 16.1252 2.6221ZM16.1252 3.37329C16.7176 3.37367 17.304 3.49087 17.851 3.7182C18.398 3.94553 18.8948 4.27851 19.3129 4.6981C19.7311 5.11768 20.0623 5.61561 20.2878 6.16339C20.5132 6.71117 20.6284 7.29804 20.6267 7.89039C20.6284 8.48274 20.5132 9.06961 20.2878 9.61739C20.0623 10.1652 19.7311 10.6631 19.3129 11.0827C18.8948 11.5023 18.398 11.8353 17.851 12.0626C17.304 12.2899 16.7176 12.4071 16.1252 12.4075C15.533 12.4071 14.9467 12.2899 14.3998 12.0625C13.853 11.8352 13.3564 11.5021 12.9385 11.0825C12.5206 10.6629 12.1896 10.1649 11.9644 9.61718C11.7393 9.06941 11.6245 8.48261 11.6265 7.89039C11.6243 7.29805 11.739 6.7111 11.964 6.16317C12.1891 5.61524 12.52 5.11712 12.938 4.69735C13.3559 4.27758 13.8526 3.94442 14.3995 3.71697C14.9464 3.48952 15.5329 3.37225 16.1252 3.37188V3.37329ZM16.1252 4.50151C15.9424 4.50009 15.7581 4.6234 15.7496 4.87569V5.26829C15.3853 5.34668 15.0587 5.54699 14.8237 5.83614C14.5886 6.12528 14.4593 6.48595 14.457 6.85856C14.457 7.41133 14.7362 7.7274 15.0721 7.89181C15.4066 8.0548 15.7638 8.0789 16.0869 8.11292C16.4115 8.14551 16.7021 8.18945 16.8523 8.26315C16.9444 8.31418 17.0451 8.36379 17.0451 8.61891C17.0451 9.09797 16.651 9.49767 16.1408 9.50334C15.7113 9.49483 15.3754 9.2312 15.2323 8.76064C15.0679 8.28867 14.379 8.50694 14.5165 8.98742C14.7575 9.73578 15.2592 10.0788 15.7496 10.2063V10.4997C15.778 11.0071 16.4923 10.9887 16.5008 10.4997V10.2092C16.865 10.1302 17.1915 9.92976 17.4269 9.64083C17.6623 9.35189 17.7925 8.99156 17.7963 8.61891C17.7963 8.07323 17.517 7.75433 17.1811 7.58991C16.8452 7.4255 16.488 7.4014 16.1649 7.36881C15.8417 7.33479 15.5512 7.28943 15.4009 7.21573C15.2904 7.16187 15.2068 7.08959 15.2068 6.85856C15.2068 6.37099 15.6022 5.98831 16.1124 5.98405C16.5717 6.00248 16.8707 6.24343 17.0196 6.71824C17.1811 7.18172 17.8657 6.9847 17.7381 6.49288C17.5525 5.9061 17.157 5.44263 16.4994 5.27538V4.87569C16.5003 4.82641 16.4914 4.77744 16.473 4.7317C16.4546 4.68596 16.4272 4.64439 16.3924 4.60947C16.3576 4.57455 16.3162 4.547 16.2705 4.52845C16.2248 4.5099 16.1759 4.50074 16.1266 4.50151H16.1252ZM5.41003 15.7865C5.05432 15.9561 4.70272 16.1343 4.35552 16.3208C4.25692 16.1483 4.11462 16.0048 3.94293 15.9048C3.77125 15.8048 3.57624 15.7517 3.37755 15.751H1.12679C0.97877 15.7508 0.832162 15.7798 0.695369 15.8364C0.558576 15.893 0.434285 15.976 0.329615 16.0806C0.224946 16.1853 0.141954 16.3096 0.085393 16.4464C0.0288324 16.5832 -0.000185654 16.7298 8.93746e-07 16.8778V22.1263C8.93746e-07 22.7428 0.500326 23.2531 1.12679 23.2531H3.37755C3.9941 23.2531 4.50151 22.757 4.50009 22.1263L4.50151 22.0611C5.23286 21.9434 5.9302 21.7833 6.75084 21.7521C7.21573 21.7521 8.08315 22.4097 8.64584 22.808C9.44806 23.3749 10.3126 24 11.2495 24C11.533 24 11.815 23.9079 12.1878 23.769C14.2401 23.0008 18.5659 20.553 21.0888 19.0775C21.2394 18.9927 21.3716 18.8787 21.4777 18.7423C21.5839 18.6058 21.6618 18.4496 21.7071 18.2828C21.7523 18.116 21.7639 17.9418 21.7412 17.7704C21.7185 17.5991 21.662 17.4339 21.5749 17.2846C21.2305 16.6865 20.5275 16.5405 19.8457 16.7729L14.5973 18.59C14.5503 18.3917 14.4631 18.2051 14.3412 18.0418C14.2194 17.8785 14.0653 17.7419 13.8886 17.6403C12.4217 16.8523 10.9008 16.0444 9.39987 15.4335C8.92931 15.2535 8.37229 15.0055 7.82945 15.0012C7.28518 14.9956 6.23209 15.3938 5.41003 15.7865ZM9.12207 16.1266C10.6585 16.78 12.005 17.4703 13.5116 18.2895C13.5969 18.3388 13.6716 18.4044 13.7314 18.4826C13.7913 18.5608 13.8352 18.6501 13.8606 18.7452C13.886 18.8404 13.8924 18.9396 13.8795 19.0372C13.8665 19.1349 13.8345 19.229 13.7852 19.3142C13.7358 19.3995 13.6702 19.4742 13.592 19.5341C13.5138 19.5939 13.4246 19.6378 13.3294 19.6632C13.2343 19.6886 13.1351 19.6951 13.0374 19.6821C12.9398 19.6692 12.8457 19.6371 12.7604 19.5878L10.4884 18.2753C10.0433 17.9748 9.6309 18.6892 10.1142 18.9245L12.3876 20.2355C12.5818 20.3468 12.7984 20.4134 13.0215 20.4304C13.2446 20.4474 13.4688 20.4145 13.6776 20.334C13.8864 20.2535 14.0746 20.1274 14.2286 19.965C14.3825 19.8026 14.4983 19.6079 14.5675 19.395L20.0909 17.4816C20.5728 17.3172 20.8592 17.4859 20.9598 17.7282C21.0123 17.8526 21.0176 17.9919 20.9745 18.1198C20.9314 18.2477 20.843 18.3555 20.7259 18.4227C17.792 20.1136 13.9751 22.2822 11.9256 23.0645C11.5854 23.1921 11.309 23.2531 11.2495 23.2531C10.6868 23.2531 9.8676 22.7541 9.07671 22.1957C8.54096 21.8343 7.57149 21.0165 6.75226 21.0023C6.14422 21.0037 5.15774 21.1795 4.50151 21.2999V17.0975C4.50151 17.0975 5.12798 16.7502 5.73035 16.4654C6.50706 16.0969 7.3603 15.751 7.78834 15.7539C8.21638 15.7567 8.74931 15.9778 9.12065 16.128L9.12207 16.1266ZM1.12821 16.5008H3.37755C3.59724 16.5008 3.75031 16.678 3.75031 16.8792V22.1263C3.75032 22.2255 3.71118 22.3208 3.64139 22.3914C3.57161 22.4619 3.4768 22.5022 3.37755 22.5033H1.12679C1.02717 22.5025 0.931849 22.4625 0.861531 22.3919C0.791213 22.3214 0.751567 22.2259 0.751197 22.1263V16.8778C0.751197 16.6482 0.93687 16.5008 1.12821 16.5008ZM1.50098 21.3765C1.50098 21.5834 1.66822 21.7521 1.87516 21.7521C2.08209 21.7521 2.25217 21.5948 2.25217 21.3765C2.25217 21.1582 2.07784 21.0023 1.87232 21.0023C1.66681 21.0023 1.50098 21.1695 1.50098 21.3765Z" fill="black"/>
</g>
<defs>
<clipPath id="clip0_596_3400">
<rect width="24" height="24" fill="white"/>
</clipPath>
</defs>
</svg>
