<svg width="22" height="23" viewBox="0 0 22 23" fill="none" xmlns="http://www.w3.org/2000/svg">
<path d="M19.625 0.5H2.375C1.87772 0.5 1.40081 0.697544 1.04917 1.04917C0.697544 1.40081 0.5 1.87772 0.5 2.375V5.375C0.5 5.87228 0.697544 6.34919 1.04917 6.70083C1.40081 7.05246 1.87772 7.25 2.375 7.25V10.25C2.375 10.7473 2.57254 11.2242 2.92417 11.5758C3.27581 11.9275 3.75272 12.125 4.25 12.125H5V15.5C4.99829 16.0043 5.12472 16.5008 5.36741 16.9429C5.6101 17.385 5.9611 17.7582 6.3875 18.0275C5.58125 18.5975 5.75 19.3813 5.75 20.75C5.75 21.1478 5.90804 21.5294 6.18934 21.8107C6.47064 22.092 6.85218 22.25 7.25 22.25H14.375C14.7728 22.25 15.1544 22.092 15.4357 21.8107C15.717 21.5294 15.875 21.1478 15.875 20.75C15.875 19.4338 16.0437 18.5975 15.2375 18.0275C15.6624 17.7566 16.0123 17.3831 16.2548 16.9414C16.4973 16.4996 16.6246 16.0039 16.625 15.5V12.125H17.75C18.2473 12.125 18.7242 11.9275 19.0758 11.5758C19.4275 11.2242 19.625 10.7473 19.625 10.25V7.25C20.1223 7.25 20.5992 7.05246 20.9508 6.70083C21.3025 6.34919 21.5 5.87228 21.5 5.375V2.375C21.5 1.87772 21.3025 1.40081 20.9508 1.04917C20.5992 0.697544 20.1223 0.5 19.625 0.5ZM3.125 10.25V4.25H5.08625C4.98098 4.36769 4.85212 4.46191 4.70804 4.52652C4.56396 4.59113 4.4079 4.62468 4.25 4.625C4.15054 4.625 4.05516 4.66451 3.98484 4.73484C3.91451 4.80516 3.875 4.90054 3.875 5V8.75C3.875 8.84946 3.91451 8.94484 3.98484 9.01517C4.05516 9.08549 4.15054 9.125 4.25 9.125C4.54837 9.125 4.83452 9.24353 5.0455 9.4545C5.25647 9.66548 5.375 9.95163 5.375 10.25C5.375 10.3495 5.41451 10.4448 5.48483 10.5152C5.55516 10.5855 5.65054 10.625 5.75 10.625H12.875V11.375H4.25C3.95163 11.375 3.66548 11.2565 3.4545 11.0455C3.24353 10.8345 3.125 10.5484 3.125 10.25ZM12.5 6.3125C12.5 7.4375 11.8287 8.375 11 8.375C10.1713 8.375 9.5 7.44875 9.5 6.3125C9.5 5.17625 10.1713 4.25 11 4.25C11.8287 4.25 12.5 5.17625 12.5 6.3125ZM11 9.125C13.0437 9.125 14.0262 5.98625 12.5262 4.25H16.0325C16.1527 4.52563 16.3374 4.76832 16.571 4.95759C16.8047 5.14686 17.0804 5.27716 17.375 5.3375V8.4125C17.2139 8.44855 17.0578 8.50396 16.91 8.5775C16.3625 8.85125 16.8237 8.87375 16.4525 8.03375C16.2763 7.65036 15.9759 7.33761 15.6 7.14607C15.224 6.95453 14.7945 6.89539 14.3807 6.97822C13.967 7.06106 13.5933 7.28101 13.3201 7.60253C13.0468 7.92405 12.89 8.32833 12.875 8.75V9.875H6.0875C6.01401 9.51467 5.83618 9.1839 5.57614 8.92386C5.3161 8.66382 4.98533 8.48599 4.625 8.4125V5.3375C4.91958 5.27716 5.19532 5.14686 5.42897 4.95759C5.66262 4.76832 5.84733 4.52563 5.9675 4.25H9.47375C8 5.975 8.94875 9.125 11 9.125ZM14.375 18.5C14.5739 18.5 14.7647 18.579 14.9053 18.7197C15.046 18.8603 15.125 19.0511 15.125 19.25V20.75C15.125 20.9489 15.046 21.1397 14.9053 21.2803C14.7647 21.421 14.5739 21.5 14.375 21.5H7.25C7.05109 21.5 6.86032 21.421 6.71967 21.2803C6.57902 21.1397 6.5 20.9489 6.5 20.75V19.25C6.5 19.0511 6.57902 18.8603 6.71967 18.7197C6.86032 18.579 7.05109 18.5 7.25 18.5H14.375ZM15.875 15.5C15.875 16.0967 15.6379 16.669 15.216 17.091C14.794 17.5129 14.2217 17.75 13.625 17.75H8C7.40326 17.75 6.83097 17.5129 6.40901 17.091C5.98705 16.669 5.75 16.0967 5.75 15.5V12.125H10.8837C10.3398 12.5036 9.89563 13.0085 9.58934 13.5962C9.28305 14.184 9.12372 14.8372 9.125 15.5C9.125 15.5995 9.16451 15.6948 9.23483 15.7652C9.30516 15.8355 9.40054 15.875 9.5 15.875C9.59946 15.875 9.69484 15.8355 9.76517 15.7652C9.83549 15.6948 9.875 15.5995 9.875 15.5C9.875 14.6049 10.2306 13.7465 10.8635 13.1135C11.4965 12.4806 12.3549 12.125 13.25 12.125C13.3495 12.125 13.4448 12.0855 13.5152 12.0152C13.5855 11.9448 13.625 11.8495 13.625 11.75C13.625 8.6825 13.5087 8.40875 13.9513 7.955C14.0504 7.84999 14.1696 7.76593 14.3018 7.7078C14.434 7.64966 14.5765 7.61862 14.7209 7.61652C14.8653 7.61443 15.0086 7.64131 15.1424 7.69558C15.2763 7.74986 15.3979 7.83042 15.5 7.9325C15.9913 8.4125 15.875 8.21375 15.875 15.5ZM18.875 10.25C18.875 10.5484 18.7565 10.8345 18.5455 11.0455C18.3345 11.2565 18.0484 11.375 17.75 11.375H16.625V10.25C16.625 9.95163 16.7435 9.66548 16.9545 9.4545C17.1655 9.24353 17.4516 9.125 17.75 9.125C17.8495 9.125 17.9448 9.08549 18.0152 9.01517C18.0855 8.94484 18.125 8.84946 18.125 8.75V5C18.125 4.90054 18.0855 4.80516 18.0152 4.73484C17.9448 4.66451 17.8495 4.625 17.75 4.625C17.5931 4.62213 17.4384 4.58742 17.2953 4.52295C17.1522 4.45849 17.0236 4.36563 16.9175 4.25C16.8837 4.2125 16.9175 4.25 18.875 4.25V10.25ZM20.75 5.375C20.75 5.67337 20.6315 5.95952 20.4205 6.1705C20.2095 6.38147 19.9234 6.5 19.625 6.5V4.25C19.7245 4.25 19.8198 4.21049 19.8902 4.14016C19.9605 4.06984 20 3.97446 20 3.875C20 3.77554 19.9605 3.68016 19.8902 3.60984C19.8198 3.53951 19.7245 3.5 19.625 3.5H2.375C2.27554 3.5 2.18016 3.53951 2.10984 3.60984C2.03951 3.68016 2 3.77554 2 3.875C2 3.97446 2.03951 4.06984 2.10984 4.14016C2.18016 4.21049 2.27554 4.25 2.375 4.25V6.5C2.07663 6.5 1.79048 6.38147 1.5795 6.1705C1.36853 5.95952 1.25 5.67337 1.25 5.375V2.375C1.25 2.07663 1.36853 1.79048 1.5795 1.5795C1.79048 1.36853 2.07663 1.25 2.375 1.25H19.625C19.9234 1.25 20.2095 1.36853 20.4205 1.5795C20.6315 1.79048 20.75 2.07663 20.75 2.375V5.375Z" fill="black"/>
</svg>
